<svg width="32" height="32" viewBox="0 0 32 32" fill="none" xmlns="http://www.w3.org/2000/svg">
<path d="M13.0397 16.7382L17.8895 13.9382C18.4634 13.6068 19.1985 13.8028 19.5313 14.3759C19.8642 14.949 19.6687 15.6822 19.0948 16.0136L14.245 18.8136C13.6711 19.145 12.936 18.949 12.6031 18.3759C12.2703 17.8028 12.4658 17.0696 13.0397 16.7382Z" fill="#3C43FF"/>
<path fill-rule="evenodd" clip-rule="evenodd" d="M24.5028 24.5431C22.2024 26.8401 19.3288 28 15.9534 28C12.6067 28 9.75457 26.8401 7.46852 24.5354C5.16813 22.2232 4 19.3463 4 15.9962C4 12.6461 5.16813 9.77679 7.46852 7.45691C9.75457 5.15993 12.6067 4 15.9534 4C19.3288 4 22.2024 5.16757 24.5028 7.45691C26.8247 9.77679 28 12.6537 28 16.0038C28 19.3539 26.8247 22.2232 24.5028 24.5431ZM8.77992 14.3555L8.92326 14.4471C9.70439 14.9812 9.96955 16.0725 9.5109 16.9424C9.39624 17.1485 9.24577 17.324 9.08094 17.469L8.62229 17.7513L8.26397 17.9726C8.09198 18.0719 7.96299 18.2169 7.86266 18.3847C7.6405 18.7663 7.60464 19.2623 7.83396 19.682L8.90178 21.6509C9.06661 21.9637 9.35326 22.1622 9.66141 22.2385C9.9409 22.3072 10.2419 22.269 10.507 22.1087L10.98 21.8188C11.0588 21.7577 11.1448 21.7043 11.238 21.6585C11.4601 21.544 11.7181 21.4754 11.9833 21.4754C12.8576 21.4754 13.5742 22.1545 13.7104 23.0474V24.0699C13.7104 24.5278 13.9468 24.9246 14.2908 25.1459C14.47 25.2528 14.6707 25.3215 14.8856 25.3215H17.0212C17.2433 25.3215 17.444 25.2528 17.616 25.1459C17.96 24.9246 18.1965 24.5278 18.1965 24.0699V23.0474C18.3255 22.1545 19.0493 21.4754 19.9235 21.4754C20.1887 21.4754 20.4395 21.544 20.6689 21.6585C20.762 21.7043 20.848 21.7577 20.9268 21.8188L21.3998 22.1087C21.665 22.269 21.966 22.3072 22.2455 22.2385C22.5536 22.1698 22.8331 21.9637 23.0051 21.6509L24.0729 19.682C24.3022 19.2623 24.2735 18.7663 24.0442 18.3847C23.9438 18.2245 23.8149 18.0795 23.6429 17.9726L23.2845 17.7513L22.8259 17.469C22.6539 17.3316 22.5106 17.1561 22.3959 16.9424C21.9301 16.0801 22.1881 14.9812 22.9692 14.4471L23.1126 14.3555L23.6357 14.035C23.8077 13.9358 23.9367 13.7908 24.037 13.6229C24.2592 13.2413 24.295 12.7453 24.0657 12.3256L22.9979 10.3568C22.8331 10.0439 22.5464 9.84546 22.2383 9.76915C21.9588 9.70047 21.6578 9.73864 21.3927 9.89889L21.0558 10.1049L20.4969 10.4483C20.3177 10.517 20.1242 10.5552 19.9164 10.5552C19.0421 10.5552 18.3255 9.87599 18.1893 8.98315V7.93005C18.1893 7.47218 17.9528 7.07536 17.6088 6.85406C17.4297 6.74722 17.229 6.67854 17.014 6.67854H14.8785C14.6563 6.67854 14.4556 6.74722 14.2837 6.85406C13.9397 7.07536 13.7032 7.47218 13.7032 7.93005V8.98315C13.5742 9.87599 12.8504 10.5552 11.9761 10.5552C11.7755 10.5552 11.5748 10.517 11.3956 10.4483L10.8367 10.1049L10.4999 9.89889C10.2347 9.73864 9.93372 9.70047 9.65424 9.76915C9.34609 9.83783 9.0666 10.0439 8.89461 10.3568L7.82683 12.3256C7.59751 12.7453 7.62616 13.2413 7.85548 13.6229C7.95581 13.7831 8.0848 13.9281 8.2568 14.035L8.77992 14.3555Z" fill="#3C43FF"/>
</svg>
