<svg width="152" height="48" viewBox="0 0 152 48" fill="none" xmlns="http://www.w3.org/2000/svg">
<path d="M60.8254 15.6337L64.298 13.643C64.9652 13.2605 65.8234 13.4871 66.2148 14.1492C66.6061 14.8114 66.3824 15.6582 65.7152 16.0407L62.2426 18.0314C61.5753 18.414 60.7171 18.1873 60.3258 17.5252C59.9344 16.863 60.1581 16.0162 60.8254 15.6337Z" fill="#3C43FF"/>
<path fill-rule="evenodd" clip-rule="evenodd" d="M63.303 25.3617C66.026 25.3617 68.3443 24.426 70.2001 22.5729C72.0733 20.7014 73.0214 18.3866 73.0214 15.684C73.0214 12.9813 72.0733 10.6604 70.2001 8.78883C68.3443 6.94192 66.026 6 63.303 6C60.6031 6 58.3021 6.93577 56.4579 8.78883C54.602 10.6604 53.6597 12.9752 53.6597 15.6778C53.6597 18.3804 54.602 20.7014 56.4579 22.5668C58.3021 24.426 60.6031 25.3617 63.303 25.3617ZM57.6315 14.4281L57.5158 14.3542L57.0938 14.0956C56.955 14.0094 56.851 13.8924 56.77 13.7632C56.585 13.4553 56.5619 13.0552 56.7469 12.7166L57.6083 11.1282C57.7471 10.8758 57.9726 10.7096 58.2212 10.6542C58.4466 10.5988 58.6894 10.6296 58.9034 10.7589L59.1751 10.9251L59.626 11.2021C59.7706 11.2575 59.9324 11.2883 60.0943 11.2883C60.7996 11.2883 61.3835 10.7404 61.4876 10.0201V9.17053C61.4876 8.80115 61.6784 8.48102 61.9559 8.30248C62.0947 8.21629 62.2565 8.16089 62.4358 8.16089H64.1586C64.332 8.16089 64.4939 8.21629 64.6385 8.30248C64.916 8.48102 65.1067 8.80115 65.1067 9.17053V10.0201C65.2166 10.7404 65.7947 11.2883 66.5001 11.2883C66.6677 11.2883 66.8238 11.2575 66.9684 11.2021L67.4193 10.9251L67.691 10.7589C67.9049 10.6296 68.1477 10.5988 68.3732 10.6542C68.6218 10.7158 68.8531 10.8758 68.986 11.1282L69.8475 12.7166C70.0325 13.0552 70.0036 13.4553 69.8243 13.7632C69.7434 13.8986 69.6393 14.0156 69.5006 14.0956L69.0785 14.3542L68.9629 14.4281C68.3327 14.859 68.1246 15.7455 68.5004 16.4412C68.5929 16.6136 68.7085 16.7552 68.8473 16.866L69.2173 17.0938L69.5063 17.2723C69.6451 17.3585 69.7492 17.4755 69.8301 17.6047C70.0151 17.9126 70.0383 18.3127 69.8532 18.6513L68.9918 20.2397C68.8531 20.4921 68.6276 20.6583 68.379 20.7137C68.1535 20.7691 67.9107 20.7383 67.6968 20.609L67.3152 20.3751C67.2516 20.3258 67.1823 20.2827 67.1071 20.2458C66.9221 20.1535 66.7197 20.0981 66.5058 20.0981C65.8005 20.0981 65.2166 20.646 65.1125 21.3663V22.1912C65.1125 22.5606 64.9217 22.8807 64.6442 23.0593C64.5055 23.1455 64.3436 23.2009 64.1644 23.2009H62.4415C62.2681 23.2009 62.1062 23.1455 61.9617 23.0593C61.6842 22.8807 61.4934 22.5606 61.4934 22.1912V21.3663C61.3835 20.646 60.8054 20.0981 60.1001 20.0981C59.8862 20.0981 59.678 20.1535 59.4988 20.2458C59.4237 20.2827 59.3543 20.3258 59.2907 20.3751L58.9091 20.609C58.6952 20.7383 58.4524 20.7691 58.227 20.7137C57.9784 20.6521 57.7471 20.4921 57.6141 20.2397L56.7527 18.6513C56.5677 18.3127 56.5966 17.9126 56.7758 17.6047C56.8568 17.4693 56.9608 17.3523 57.0996 17.2723L57.3886 17.0938L57.7587 16.866C57.8916 16.749 58.013 16.6074 58.1055 16.4412C58.4755 15.7394 58.2616 14.859 57.6315 14.4281Z" fill="#3C43FF"/>
<path fill-rule="evenodd" clip-rule="evenodd" d="M76.2051 14.0738H79.8543C80.5576 14.0738 81.1342 14.6416 81.1405 15.3404V36.0612H76.2051L76.2367 31.2008H42.2461V36.0612H37.3296V31.2008H6V27.3199H13.5837V24.3812H7.08337V10.767H24.3606C25.0702 10.767 25.6404 11.3348 25.6404 12.0273V24.3812H18.5002V27.3199H76.2367L76.2051 14.0738ZM19.7863 15.2593H11.9998V19.8951H20.4198V15.8832C20.4198 15.5401 20.1347 15.2593 19.7863 15.2593Z" fill="#3C43FF"/>
<path d="M117.615 13.375H114.947V10.7732H110.392V25.6789L114.947 25.7101V17.0874H118.888V14.6291C118.888 13.9303 118.318 13.375 117.615 13.375Z" fill="#3C43FF"/>
<path d="M99.4571 21.5362C99.3241 21.6609 99.1847 21.7857 99.0454 21.9105L99.0162 21.9371L98.9859 21.9647C98.9099 22.0335 98.8358 22.1007 98.7856 22.1601C98.7127 22.2194 98.6414 22.2802 98.5702 22.341C98.4989 22.4019 98.4276 22.4627 98.3548 22.522L98.0316 22.784C97.8859 22.9026 97.7339 23.0211 97.5818 23.1397C97.4744 23.2268 97.3607 23.3139 97.247 23.401L97.246 23.4017L96.7709 23.7574C96.7474 23.774 96.7239 23.791 96.7004 23.8081L96.6466 23.8474L96.6458 23.848C96.5728 23.9013 96.4989 23.9554 96.4224 24.0069C96.3595 24.0505 96.2965 24.095 96.2333 24.1397C96.1246 24.2164 96.015 24.2939 95.9029 24.3688C95.789 24.4498 95.6747 24.5311 95.5608 24.6059C95.365 24.7365 95.1628 24.8671 94.9607 24.9978L94.9598 24.9984L94.9589 24.999C94.9082 25.0302 94.8591 25.0629 94.81 25.0957C94.7609 25.1284 94.7118 25.1612 94.6611 25.1924C94.3957 25.3667 94.1254 25.5314 93.8504 25.6991L93.7298 25.7727L93.2039 26.0909L90.5303 23.408L91.3602 22.9088C91.8037 22.6468 92.2282 22.3785 92.64 22.1102L92.6831 22.0816C92.7282 22.0517 92.776 22.0199 92.8238 21.9916C93.2102 21.7296 93.584 21.4738 93.9515 21.2117C94.0148 21.1618 94.0845 21.1119 94.1542 21.062C94.5154 20.7999 94.8638 20.5379 95.1996 20.2696C95.2249 20.2509 95.2486 20.2307 95.2722 20.2105C95.296 20.1902 95.32 20.1697 95.3453 20.151C95.6875 19.8765 96.0169 19.602 96.3337 19.3212L96.3527 19.3025C96.6695 19.0155 96.9673 18.7347 97.2587 18.4477L97.3918 18.3167C97.6642 18.0421 97.9239 17.7614 98.171 17.4868L98.3104 17.3308C98.5512 17.0501 98.7856 16.7693 99.0073 16.4885C99.0232 16.4698 99.0374 16.4495 99.0517 16.4293C99.0659 16.409 99.0802 16.3887 99.096 16.37C99.3114 16.083 99.5205 15.7897 99.7169 15.4965L99.7187 15.4945C99.7213 15.4916 99.7239 15.4878 99.7264 15.484C99.7296 15.4793 99.7327 15.4746 99.7359 15.4715V15.4653C99.9893 15.0784 100.224 14.6916 100.427 14.3048H92.5006V10.7983H104.462C104.931 10.7983 105.292 11.2101 105.223 11.6718C104.893 13.8119 104.05 15.8896 102.714 17.8674L107.795 22.3098C108.124 22.5968 108.143 23.1022 107.827 23.4142L105.679 25.5293L100.883 21.1805C100.579 20.906 100.116 20.9185 99.8183 21.1992C99.7866 21.2242 99.7549 21.2554 99.7296 21.2803C99.6463 21.3623 99.5631 21.4388 99.4746 21.5201L99.4571 21.5362Z" fill="#3C43FF"/>
<path d="M48.2521 20.5688H35.6189V14.7225H48.2521V12.1145C48.2521 11.4219 47.6819 10.8666 46.9849 10.8666H31.6084V24.3872H48.2521V20.5688Z" fill="#3C43FF"/>
<path fill-rule="evenodd" clip-rule="evenodd" d="M106.623 26.3461C104.305 26.3461 102.328 27.0948 100.738 28.5673C99.141 30.0522 98.3301 31.8991 98.3301 34.0454C98.3301 36.1917 99.141 38.0386 100.738 39.5235C102.322 40.996 104.298 41.7447 106.623 41.7447C108.968 41.7447 110.957 40.996 112.554 39.5298C114.163 38.0448 114.98 36.198 114.98 34.0516C114.98 31.8991 114.163 30.0585 112.554 28.5673C110.963 27.0885 108.968 26.3461 106.623 26.3461ZM109.354 36.7533C108.613 37.4521 107.719 37.789 106.63 37.789C105.559 37.789 104.685 37.4521 103.956 36.7533C103.183 36.0108 102.752 34.9563 102.79 33.8894C102.822 32.9098 103.183 32.0925 103.893 31.3812C104.634 30.645 105.527 30.2831 106.63 30.2831C107.757 30.2831 108.67 30.645 109.424 31.3812C110.14 32.0862 110.501 32.9036 110.539 33.8707C110.571 34.9501 110.14 36.0108 109.354 36.7533Z" fill="#3C43FF"/>
<path d="M141.083 14.0737H144.726C145.43 14.0737 146 14.6352 146 15.3278V32.7106H141.083V14.0737Z" fill="#3C43FF"/>
<path fill-rule="evenodd" clip-rule="evenodd" d="M136.24 11.4659H133.592V15.328H125.755V11.4659H121.814L121.808 28.8361H137.52L137.514 12.72C137.514 12.0211 136.943 11.4659 136.24 11.4659ZM133.592 24.974H125.755V19.1777H132.318C133.022 19.1777 133.592 19.7392 133.592 20.4318V24.974Z" fill="#3C43FF"/>
</svg>
