<?xml-stylesheet type="text/css" href="../../css/common.css"?>

<svg class="main_logo" width="66" height="18" viewBox="0 0 66 18" fill="none" xmlns="http://www.w3.org/2000/svg">
<path class="main_logo_path_01" d="M25.3231 5.58008L27.0552 4.58008C27.2943 4.44201 27.6062 4.5203 27.7518 4.75496C27.8974 4.98961 27.8215 5.29177 27.5824 5.42984L25.8503 6.42984C25.6112 6.56791 25.2993 6.48961 25.1537 6.25496C25.0081 6.0203 25.084 5.71815 25.3231 5.58008Z" fill="#3C43FF"/>
<path class="main_logo_path_02" fill-rule="evenodd" clip-rule="evenodd" d="M26.4825 10C27.7483 10 28.8259 9.56502 29.6886 8.70365C30.5593 7.8337 31 6.75771 31 5.50143C31 4.24515 30.5593 3.16629 29.6886 2.29634C28.8259 1.43784 27.7483 1 26.4825 1C25.2275 1 24.158 1.43498 23.3007 2.29634C22.438 3.16629 22 4.24229 22 5.49857C22 6.75485 22.438 7.8337 23.3007 8.70079C24.158 9.56502 25.2275 10 26.4825 10ZM23.8462 4.91765L23.7925 4.88331L23.5963 4.76312C23.5318 4.72305 23.4834 4.66868 23.4458 4.60858C23.3598 4.4655 23.3491 4.27949 23.4351 4.1221L23.8355 3.38378C23.9 3.26645 24.0048 3.18919 24.1203 3.16343C24.2251 3.13768 24.338 3.15199 24.4374 3.21208L24.5637 3.28935L24.7734 3.41813C24.8406 3.44388 24.9158 3.45819 24.991 3.45819C25.3189 3.45819 25.5903 3.2035 25.6387 2.86868V2.47377C25.6387 2.30207 25.7274 2.15326 25.8564 2.07027C25.9209 2.03021 25.9961 2.00445 26.0794 2.00445H26.8803C26.9609 2.00445 27.0361 2.03021 27.1033 2.07027C27.2323 2.15326 27.321 2.30207 27.321 2.47377V2.86868C27.372 3.2035 27.6408 3.45819 27.9687 3.45819C28.0466 3.45819 28.1191 3.44388 28.1863 3.41813L28.3959 3.28935L28.5223 3.21208C28.6217 3.15199 28.7346 3.13768 28.8394 3.16343C28.9549 3.19205 29.0624 3.26645 29.1242 3.38378L29.5246 4.1221C29.6106 4.27949 29.5972 4.4655 29.5139 4.60858C29.4763 4.67154 29.4279 4.72592 29.3634 4.76312L29.1672 4.88331L29.1135 4.91765C28.8205 5.11796 28.7238 5.53005 28.8985 5.85342C28.9415 5.93355 28.9952 5.99936 29.0597 6.05087L29.2317 6.15676L29.3661 6.23974C29.4306 6.27981 29.4789 6.33418 29.5166 6.39428C29.6026 6.53736 29.6133 6.72337 29.5273 6.88076L29.1269 7.61908C29.0624 7.73641 28.9576 7.81367 28.8421 7.83943C28.7372 7.86518 28.6244 7.85087 28.5249 7.79078L28.3476 7.68203C28.318 7.65914 28.2858 7.63911 28.2508 7.62194C28.1648 7.57901 28.0708 7.55326 27.9713 7.55326C27.6435 7.55326 27.3721 7.80795 27.3237 8.14277V8.52623C27.3237 8.69793 27.235 8.84674 27.106 8.92973C27.0415 8.96979 26.9663 8.99555 26.8829 8.99555H26.0821C26.0015 8.99555 25.9262 8.96979 25.8591 8.92973C25.7301 8.84674 25.6414 8.69793 25.6414 8.52623V8.14277C25.5903 7.80795 25.3216 7.55326 24.9937 7.55326C24.8943 7.55326 24.7975 7.57901 24.7142 7.62194C24.6793 7.63911 24.6471 7.65914 24.6175 7.68203L24.4401 7.79078C24.3407 7.85087 24.2278 7.86518 24.123 7.83943C24.0075 7.81081 23.9 7.73641 23.8382 7.61908L23.4377 6.88076C23.3517 6.72337 23.3652 6.53736 23.4485 6.39428C23.4861 6.33132 23.5345 6.27694 23.599 6.23974L23.7334 6.15676L23.9054 6.05087C23.9672 5.9965 24.0236 5.93068 24.0666 5.85342C24.2386 5.52719 24.1391 5.11796 23.8462 4.91765Z" fill="#3C43FF"/>
<path class="main_logo_path_03" fill-rule="evenodd" clip-rule="evenodd" d="M33.0938 4.61398H34.762C35.0835 4.61398 35.3471 4.86813 35.35 5.18092V14.4559H33.0938L33.1082 12.2803H17.5696V14.4559H15.3221V12.2803H1V10.5431H4.46685V9.22771H1.49525V3.13379H9.39344C9.71782 3.13379 9.97849 3.38794 9.97849 3.69794V9.22771H6.71437V10.5431H33.1082L33.0938 4.61398ZM7.30231 5.14462H3.74278V7.21968H7.59194V5.4239C7.59194 5.27029 7.4616 5.14462 7.30231 5.14462Z" fill="#3C43FF"/>
<path class="main_logo_path_04" d="M52.0239 4.30108H50.8046V3.13647H48.7222V9.80851L50.8046 9.82247V5.9628H52.6061V4.86243C52.6061 4.54964 52.3454 4.30108 52.0239 4.30108Z" fill="#3C43FF"/>
<path class="main_logo_path_05" d="M43.7229 7.95414C43.6621 8.00999 43.5984 8.06585 43.5347 8.1217L43.5075 8.14597C43.4728 8.17677 43.4389 8.20685 43.4159 8.23342C43.3826 8.25995 43.3501 8.28718 43.3175 8.31441C43.2849 8.34164 43.2523 8.36887 43.219 8.3954L43.0713 8.5127C43.0047 8.56576 42.9352 8.61882 42.8657 8.67189C42.8166 8.71083 42.7647 8.74978 42.7128 8.78872L42.4949 8.94838L42.4666 8.96833L42.4379 8.98887C42.4045 9.01276 42.3706 9.03701 42.3356 9.06009C42.3069 9.07961 42.2781 9.09951 42.2492 9.11951C42.1995 9.15387 42.1494 9.18853 42.0981 9.22207C42.0462 9.25826 41.9937 9.29479 41.9417 9.3282C41.852 9.38683 41.7593 9.44547 41.6667 9.5041C41.6435 9.51804 41.6211 9.53272 41.5987 9.54735C41.5762 9.56201 41.5536 9.57676 41.5305 9.59073C41.409 9.66878 41.2854 9.74256 41.1596 9.81767L41.1047 9.85046L40.8643 9.99289L39.6421 8.79198L40.0215 8.56856C40.2242 8.45126 40.4183 8.33117 40.6066 8.21108L40.6262 8.19831C40.6468 8.18494 40.6688 8.1706 40.6905 8.15801C40.8672 8.04071 41.0381 7.92621 41.2061 7.80891C41.235 7.78657 41.2669 7.76422 41.2988 7.74188C41.4638 7.62458 41.6231 7.50729 41.7767 7.3872C41.7882 7.37882 41.7991 7.36974 41.81 7.36066C41.8208 7.35162 41.8317 7.34248 41.8433 7.33413C41.9997 7.21125 42.1503 7.08837 42.2951 6.96269L42.3038 6.95431C42.4486 6.82584 42.5847 6.70017 42.7179 6.5717L42.7788 6.51305C42.9033 6.39016 43.0221 6.26448 43.135 6.1416L43.1987 6.07178C43.3088 5.9461 43.416 5.82043 43.5173 5.69475C43.5246 5.68637 43.5311 5.67729 43.5376 5.66821C43.5441 5.65914 43.5506 5.65006 43.5579 5.64169C43.6563 5.51322 43.7519 5.38196 43.8417 5.25069L43.8431 5.24915L43.8443 5.24753L43.8461 5.2451C43.8475 5.24301 43.8489 5.24092 43.8504 5.23952V5.23673C43.9662 5.06357 44.0734 4.89042 44.1661 4.71726H40.5428V3.14771H46.011C46.2253 3.14771 46.3904 3.33203 46.3586 3.5387C46.208 4.49664 45.8228 5.42664 45.2116 6.31196L47.5345 8.30044C47.6851 8.42891 47.6938 8.65513 47.549 8.79477L46.5671 9.74154L44.3746 7.79495C44.2356 7.67206 44.0242 7.67765 43.888 7.80332C43.8736 7.8145 43.8591 7.82846 43.8475 7.83963C43.8094 7.87636 43.7713 7.91063 43.7308 7.94706L43.7229 7.95414Z" fill="#3C43FF"/>
<path class="main_logo_path_06" d="M20.3156 7.52129H14.5404V4.90443H20.3156V3.73703C20.3156 3.42703 20.0549 3.17847 19.7363 3.17847H12.707V9.23049H20.3156V7.52129Z" fill="#3C43FF"/>
<path class="main_logo_path_07" fill-rule="evenodd" clip-rule="evenodd" d="M46.9987 10.1072C45.9387 10.1072 45.0351 10.4423 44.3081 11.1014C43.5782 11.7661 43.2075 12.5928 43.2075 13.5535C43.2075 14.5142 43.5782 15.3409 44.3081 16.0056C45.0322 16.6647 45.9358 16.9998 46.9987 16.9998C48.0704 16.9998 48.9798 16.6647 49.7097 16.0084C50.4453 15.3437 50.819 14.517 50.819 13.5563C50.819 12.5928 50.4453 11.7689 49.7097 11.1014C48.9827 10.4395 48.0704 10.1072 46.9987 10.1072ZM48.247 14.7656C47.9082 15.0784 47.4998 15.2292 47.0016 15.2292C46.5122 15.2292 46.1125 15.0784 45.7794 14.7656C45.4261 14.4332 45.2291 13.9613 45.2465 13.4837C45.261 13.0452 45.4261 12.6794 45.7505 12.361C46.0893 12.0314 46.4977 11.8694 47.0016 11.8694C47.5172 11.8694 47.9343 12.0314 48.2789 12.361C48.6062 12.6766 48.7713 13.0424 48.7887 13.4753C48.8032 13.9585 48.6062 14.4332 48.247 14.7656Z" fill="#3C43FF"/>
<path class="main_logo_path_08" d="M62.7524 4.61401H64.4178C64.7393 4.61401 65 4.86537 65 5.17537V12.9561H62.7524V4.61401Z" fill="#3C43FF"/>
<path class="main_logo_path_09" fill-rule="evenodd" clip-rule="evenodd" d="M60.5387 3.44653H59.328V5.17529H55.7453V3.44653H53.9438L53.9409 11.2217H61.1237L61.1208 4.00789C61.1208 3.69509 60.8601 3.44653 60.5387 3.44653ZM59.328 9.49297H55.7453V6.89845H58.7459C59.0673 6.89845 59.328 7.1498 59.328 7.4598V9.49297Z" fill="#3C43FF"/>
</svg>
