<svg width="102" height="32" viewBox="0 0 102 32" fill="none" xmlns="http://www.w3.org/2000/svg">
<path d="M40.8112 10.4683L43.1428 9.1317C43.5908 8.87487 44.167 9.02706 44.4298 9.47162C44.6926 9.91619 44.5424 10.4848 44.0943 10.7416L41.7628 12.0782C41.3147 12.3351 40.7385 12.1829 40.4758 11.7383C40.213 11.2937 40.3632 10.7251 40.8112 10.4683Z" fill="#3C43FF"/>
<path fill-rule="evenodd" clip-rule="evenodd" d="M42.4748 17C44.3031 17 45.8597 16.3717 47.1057 15.1275C48.3634 13.8709 49 12.3167 49 10.5021C49 8.68744 48.3634 7.12909 47.1057 5.87249C45.8597 4.63243 44.3031 4 42.4748 4C40.662 4 39.1171 4.6283 37.8788 5.87249C36.6327 7.12909 36 8.68331 36 10.4979C36 12.3126 36.6327 13.8709 37.8788 15.1234C39.1171 16.3717 40.662 17 42.4748 17ZM38.6668 9.65882L38.5891 9.60922L38.3058 9.43561C38.2126 9.37774 38.1427 9.2992 38.0884 9.2124C37.9642 9.00572 37.9487 8.73704 38.0729 8.5097L38.6512 7.44324C38.7444 7.27377 38.8958 7.16216 39.0627 7.12496C39.2141 7.08776 39.3771 7.10843 39.5208 7.19523L39.7032 7.30683L40.006 7.49285C40.103 7.53005 40.2117 7.55072 40.3204 7.55072C40.794 7.55072 41.186 7.18283 41.2559 6.6992V6.12878C41.2559 5.88077 41.384 5.66582 41.5703 5.54595C41.6635 5.48808 41.7722 5.45088 41.8925 5.45088H43.0493C43.1657 5.45088 43.2744 5.48808 43.3715 5.54595C43.5578 5.66582 43.6859 5.88077 43.6859 6.12878V6.6992C43.7596 7.18283 44.1478 7.55072 44.6214 7.55072C44.734 7.55072 44.8388 7.53005 44.9358 7.49285L45.2386 7.30683L45.421 7.19523C45.5647 7.10843 45.7277 7.08776 45.8791 7.12496C46.046 7.16629 46.2013 7.27377 46.2905 7.44324L46.8689 8.5097C46.9931 8.73704 46.9737 9.00572 46.8534 9.2124C46.7991 9.30334 46.7292 9.38188 46.636 9.43561L46.3526 9.60922L46.275 9.65882C45.8519 9.94817 45.7122 10.5434 45.9645 11.0105C46.0266 11.1262 46.1042 11.2213 46.1974 11.2957L46.4458 11.4486L46.6399 11.5685C46.733 11.6264 46.8029 11.7049 46.8573 11.7917C46.9815 11.9984 46.997 12.2671 46.8728 12.4944L46.2944 13.5609C46.2013 13.7304 46.0499 13.842 45.883 13.8792C45.7316 13.9164 45.5685 13.8957 45.4249 13.8089L45.1687 13.6518C45.126 13.6188 45.0794 13.5898 45.029 13.565C44.9048 13.503 44.7689 13.4658 44.6253 13.4658C44.1517 13.4658 43.7596 13.8337 43.6898 14.3173V14.8712C43.6898 15.1192 43.5617 15.3342 43.3753 15.4541C43.2822 15.5119 43.1735 15.5491 43.0531 15.5491H41.8964C41.7799 15.5491 41.6712 15.5119 41.5742 15.4541C41.3879 15.3342 41.2598 15.1192 41.2598 14.8712V14.3173C41.186 13.8337 40.7979 13.4658 40.3243 13.4658C40.1807 13.4658 40.0409 13.503 39.9206 13.565C39.8701 13.5898 39.8235 13.6188 39.7808 13.6518L39.5246 13.8089C39.381 13.8957 39.218 13.9164 39.0666 13.8792C38.8997 13.8378 38.7444 13.7304 38.6551 13.5609L38.0767 12.4944C37.9525 12.2671 37.9719 11.9984 38.0923 11.7917C38.1466 11.7008 38.2165 11.6223 38.3097 11.5685L38.5037 11.4486L38.7522 11.2957C38.8415 11.2172 38.923 11.1221 38.9851 11.0105C39.2335 10.5393 39.0899 9.94817 38.6668 9.65882Z" fill="#3C43FF"/>
<path fill-rule="evenodd" clip-rule="evenodd" d="M51.1376 9.42099H53.5878C54.06 9.42099 54.4471 9.80221 54.4513 10.2714V24.1839H51.1376L51.1588 20.9205H28.3366V24.1839H25.0356V20.9205H4V18.3148H9.09192V16.3416H4.7274V7.20068H16.3278C16.8043 7.20068 17.1871 7.58191 17.1871 8.04691V16.3416H12.393V18.3148H51.1588L51.1376 9.42099ZM13.2565 10.217H8.02844V13.3296H13.6819V10.6359C13.6819 10.4055 13.4904 10.217 13.2565 10.217Z" fill="#3C43FF"/>
<path d="M78.9413 8.95175H77.1504V7.20483H74.0918V17.213L77.1504 17.2339V11.4444H79.7963V9.79379C79.7963 9.32459 79.4134 8.95175 78.9413 8.95175Z" fill="#3C43FF"/>
<path d="M66.7496 14.4314C66.6603 14.5152 66.5667 14.599 66.4731 14.6827L66.4331 14.7192C66.3822 14.7654 66.3324 14.8105 66.2987 14.8503C66.2498 14.8901 66.2019 14.9309 66.1541 14.9718C66.1063 15.0125 66.0582 15.0536 66.0094 15.0933L65.7925 15.2692C65.6946 15.3488 65.5926 15.4284 65.4905 15.508C65.4183 15.5666 65.3419 15.6251 65.2655 15.6836L64.9459 15.9228L64.903 15.9537L64.8619 15.9836C64.813 16.0194 64.7633 16.0558 64.712 16.0903C64.6697 16.1196 64.6274 16.1495 64.585 16.1795C64.512 16.231 64.4384 16.283 64.3632 16.3333C64.2868 16.3876 64.2098 16.4424 64.1335 16.4925C64.0016 16.5805 63.8655 16.6685 63.7293 16.7564C63.6953 16.7774 63.6623 16.7994 63.6294 16.8214C63.5964 16.8434 63.5634 16.8653 63.5294 16.8863C63.3511 17.0034 63.1695 17.1141 62.9847 17.2267L62.9041 17.2759L62.551 17.4895L60.7559 15.6882L61.3131 15.353C61.6109 15.1771 61.8959 14.9969 62.1724 14.8168L62.2014 14.7976C62.2316 14.7775 62.2637 14.7562 62.2958 14.7372C62.5553 14.5613 62.8062 14.3895 63.053 14.2135C63.0955 14.18 63.1423 14.1465 63.1891 14.113C63.4316 13.9371 63.6655 13.7611 63.891 13.581C63.908 13.5684 63.9239 13.5549 63.9398 13.5413C63.9557 13.5277 63.9718 13.5139 63.9888 13.5014C64.2185 13.317 64.4397 13.1327 64.6524 12.9442L64.6652 12.9316C64.8779 12.7389 65.0778 12.5504 65.2735 12.3577L65.3629 12.2697C65.5458 12.0854 65.7202 11.8969 65.8861 11.7126L65.9796 11.6078C66.1413 11.4193 66.2987 11.2308 66.4476 11.0423C66.4582 11.0297 66.4678 11.0161 66.4774 11.0025C66.4869 10.9889 66.4965 10.9753 66.5071 10.9627C66.6518 10.77 66.7922 10.5731 66.924 10.3762C66.9252 10.3751 66.9263 10.3736 66.9275 10.372L66.9304 10.3678C66.9325 10.3647 66.9346 10.3615 66.9368 10.3594V10.3552C67.1069 10.0955 67.2643 9.83577 67.4005 9.57604H62.0788V7.22168H70.1102C70.425 7.22168 70.6675 7.49817 70.6207 7.80818C70.3995 9.24509 69.8337 10.6401 68.9361 11.9681L72.3478 14.9509C72.569 15.1436 72.5817 15.4829 72.369 15.6924L70.9269 17.1125L67.7067 14.1926C67.5025 14.0083 67.192 14.0166 66.9921 14.2052C66.9708 14.2219 66.9495 14.2429 66.9325 14.2596C66.8767 14.3146 66.8209 14.3659 66.7616 14.4204L66.7496 14.4314Z" fill="#3C43FF"/>
<path d="M32.3688 13.7819H23.8866V9.85654H32.3688V8.10543C32.3688 7.64042 31.986 7.26758 31.5181 7.26758H21.1938V16.3457H32.3688V13.7819Z" fill="#3C43FF"/>
<path fill-rule="evenodd" clip-rule="evenodd" d="M71.561 17.6609C70.0041 17.6609 68.6769 18.1636 67.6092 19.1523C66.5372 20.1493 65.9927 21.3893 65.9927 22.8304C65.9927 24.2715 66.5372 25.5116 67.6092 26.5086C68.6726 27.4973 69.9998 28 71.561 28C73.135 28 74.4707 27.4973 75.5427 26.5128C76.6232 25.5157 77.1719 24.2757 77.1719 22.8346C77.1719 21.3893 76.6232 20.1535 75.5427 19.1523C74.475 18.1594 73.135 17.6609 71.561 17.6609ZM73.3945 24.6486C72.8968 25.1178 72.297 25.344 71.5653 25.344C70.8464 25.344 70.2593 25.1178 69.7701 24.6486C69.2512 24.15 68.9619 23.4421 68.9874 22.7257C69.0087 22.068 69.2512 21.5192 69.7276 21.0416C70.2253 20.5473 70.8251 20.3043 71.5653 20.3043C72.3225 20.3043 72.9351 20.5473 73.4413 21.0416C73.922 21.515 74.1644 22.0638 74.19 22.7131C74.2112 23.4379 73.9219 24.15 73.3945 24.6486Z" fill="#3C43FF"/>
<path d="M94.6987 9.4209H97.1447C97.6169 9.4209 97.9998 9.79794 97.9998 10.2629V21.9342H94.6987V9.4209Z" fill="#3C43FF"/>
<path fill-rule="evenodd" clip-rule="evenodd" d="M91.4468 7.66992H89.6686V10.2631H84.4065V7.66992H81.7606L81.7563 19.3328H92.306L92.3018 8.51196C92.3018 8.04276 91.9189 7.66992 91.4468 7.66992ZM89.6686 16.7397H84.4065V12.8478H88.8136C89.2858 12.8478 89.6686 13.2249 89.6686 13.6899V16.7397Z" fill="#3C43FF"/>
</svg>
