<svg width="76" height="24" viewBox="0 0 76 24" fill="none" xmlns="http://www.w3.org/2000/svg">
<path d="M30.906 7.84995L32.6381 6.84995C32.9729 6.65665 33.4029 6.77024 33.5986 7.10367C33.7943 7.43709 33.6815 7.86408 33.3467 8.05738L31.6146 9.05738C31.2798 9.25068 30.8498 9.13709 30.6541 8.80367C30.4584 8.47024 30.5712 8.04325 30.906 7.84995Z" fill="#3C43FF"/>
<path fill-rule="evenodd" clip-rule="evenodd" d="M31.9806 13C33.387 13 34.5844 12.5167 35.5428 11.5596C36.5103 10.593 37 9.39746 37 8.00159C37 6.60573 36.5103 5.40699 35.5428 4.44038C34.5844 3.48649 33.387 3 31.9806 3C30.5861 3 29.3977 3.48331 28.4452 4.44038C27.4867 5.40699 27 6.60254 27 7.99841C27 9.39427 27.4867 10.593 28.4452 11.5564C29.3977 12.5167 30.5861 13 31.9806 13ZM29.0514 7.35294L28.9916 7.31479L28.7737 7.18124C28.702 7.13673 28.6483 7.07631 28.6065 7.00954C28.5109 6.85056 28.499 6.64388 28.5945 6.469L29.0394 5.64865C29.1111 5.51828 29.2275 5.43243 29.3559 5.40381C29.4724 5.3752 29.5978 5.3911 29.7083 5.45787L29.8486 5.54372L30.0815 5.68681C30.1562 5.71542 30.2398 5.73132 30.3234 5.73132C30.6877 5.73132 30.9892 5.44833 31.043 5.07631V4.63752C31.043 4.44674 31.1415 4.2814 31.2849 4.18919C31.3565 4.14468 31.4401 4.11606 31.5327 4.11606H32.4225C32.5121 4.11606 32.5957 4.14468 32.6703 4.18919C32.8137 4.2814 32.9122 4.44674 32.9122 4.63752V5.07631C32.9689 5.44833 33.2676 5.73132 33.6318 5.73132C33.7184 5.73132 33.7991 5.71542 33.8737 5.68681L34.1066 5.54372L34.2469 5.45787C34.3574 5.3911 34.4828 5.3752 34.5993 5.40381C34.7277 5.43561 34.8471 5.51828 34.9158 5.64865L35.3607 6.469C35.4563 6.64388 35.4413 6.85056 35.3488 7.00954C35.307 7.07949 35.2532 7.13991 35.1816 7.18124L34.9636 7.31479L34.9038 7.35294C34.5784 7.57552 34.4709 8.03339 34.665 8.39269C34.7127 8.48172 34.7725 8.55485 34.8441 8.61208L35.0352 8.72973L35.1845 8.82194C35.2562 8.86645 35.3099 8.92687 35.3517 8.99364C35.4473 9.15262 35.4592 9.3593 35.3637 9.53418L34.9188 10.3545C34.8471 10.4849 34.7307 10.5707 34.6023 10.5994C34.4858 10.628 34.3604 10.6121 34.2499 10.5453L34.0529 10.4245C34.02 10.399 33.9842 10.3768 33.9454 10.3577C33.8498 10.31 33.7453 10.2814 33.6348 10.2814C33.2705 10.2814 32.9689 10.5644 32.9152 10.9364V11.3625C32.9152 11.5533 32.8167 11.7186 32.6733 11.8108C32.6017 11.8553 32.5181 11.8839 32.4255 11.8839H31.5357C31.4461 11.8839 31.3625 11.8553 31.2878 11.8108C31.1445 11.7186 31.046 11.5533 31.046 11.3625V10.9364C30.9892 10.5644 30.6907 10.2814 30.3264 10.2814C30.2159 10.2814 30.1084 10.31 30.0158 10.3577C29.977 10.3768 29.9412 10.399 29.9083 10.4245L29.7113 10.5453C29.6008 10.6121 29.4754 10.628 29.3589 10.5994C29.2305 10.5676 29.1111 10.4849 29.0424 10.3545L28.5975 9.53418C28.5019 9.3593 28.5169 9.15262 28.6094 8.99364C28.6512 8.92369 28.705 8.86327 28.7767 8.82194L28.926 8.72973L29.1171 8.61208C29.1857 8.55167 29.2484 8.47854 29.2962 8.39269C29.4873 8.03021 29.3768 7.57552 29.0514 7.35294Z" fill="#3C43FF"/>
<path fill-rule="evenodd" clip-rule="evenodd" d="M38.1026 7.06573H39.9272C40.2788 7.06573 40.5671 7.35164 40.5703 7.70354V18.1378H38.1026L38.1184 15.6903H21.1231V18.1378H18.6648V15.6903H3V13.736H6.79186V12.2562H3.54168V5.40051H12.1803C12.5351 5.40051 12.8202 5.68643 12.8202 6.03518V12.2562H9.25009V13.736H38.1184L38.1026 7.06573ZM9.89315 7.66269H5.99991V9.99714H10.2099V7.97689C10.2099 7.80408 10.0674 7.66269 9.89315 7.66269Z" fill="#3C43FF"/>
<path d="M58.8076 6.71374H57.4739V5.40356H55.1963V12.9096L57.4739 12.9253V8.58318H59.4443V7.34527C59.4443 6.99337 59.1592 6.71374 58.8076 6.71374Z" fill="#3C43FF"/>
<path d="M49.7286 10.8235C49.6621 10.8863 49.5924 10.9492 49.5227 11.012L49.4929 11.0393C49.455 11.074 49.4179 11.1078 49.3928 11.1377C49.3564 11.1675 49.3207 11.1982 49.2851 11.2288C49.2495 11.2594 49.2138 11.2901 49.1774 11.3199L49.0158 11.4519C48.943 11.5116 48.8669 11.5713 48.7909 11.631C48.7372 11.6748 48.6803 11.7187 48.6234 11.7626L48.3854 11.942C48.3647 11.9568 48.344 11.9721 48.3232 11.9874C48.2867 12.0143 48.2494 12.0417 48.2112 12.0677C48.1797 12.0897 48.1482 12.1121 48.1166 12.1346C48.0623 12.1732 48.0075 12.2122 47.9514 12.2499C47.8946 12.2907 47.8373 12.3317 47.7804 12.3693C47.6822 12.4353 47.5808 12.5013 47.4794 12.5673C47.4541 12.583 47.4295 12.5995 47.405 12.616C47.3804 12.6324 47.3559 12.6489 47.3305 12.6647C47.1978 12.7524 47.0627 12.8354 46.9252 12.9198L46.8649 12.9569L46.6019 13.1171L45.2651 11.7661L45.6801 11.5147C45.9019 11.3828 46.1141 11.2477 46.32 11.1126L46.3416 11.0982C46.3641 11.0831 46.388 11.0671 46.4119 11.0529C46.6051 10.9209 46.792 10.7921 46.9757 10.6601C47.0074 10.635 47.0423 10.6098 47.0771 10.5847C47.2577 10.4527 47.4319 10.3208 47.5998 10.1857C47.6125 10.1763 47.6244 10.1661 47.6362 10.1558C47.6481 10.1456 47.66 10.1354 47.6727 10.126C47.8437 9.98775 48.0085 9.8495 48.1668 9.70812L48.1764 9.69869C48.3348 9.55416 48.4836 9.41278 48.6294 9.26825L48.6959 9.20227C48.8321 9.06402 48.962 8.92264 49.0855 8.78439L49.1552 8.70584C49.2756 8.56446 49.3928 8.42307 49.5037 8.28168C49.5116 8.27226 49.5187 8.26205 49.5258 8.25184C49.533 8.24163 49.5401 8.23142 49.548 8.22199C49.6557 8.07746 49.7603 7.92979 49.8585 7.78212L49.86 7.78039L49.8632 7.77584L49.865 7.77321C49.866 7.77181 49.867 7.77053 49.868 7.76956V7.76641C49.9947 7.57161 50.1119 7.37681 50.2133 7.18201H46.2503V5.41626H52.2312C52.4656 5.41626 52.6461 5.62363 52.6113 5.85613C52.4466 6.93381 52.0252 7.98006 51.3568 8.97605L53.8974 11.2131C54.0622 11.3576 54.0717 11.6121 53.9133 11.7692L52.8394 12.8343L50.4413 10.6444C50.2893 10.5062 50.058 10.5124 49.9091 10.6538C49.8933 10.6664 49.8775 10.6821 49.8648 10.6947C49.8232 10.7359 49.7817 10.7743 49.7375 10.8152L49.7286 10.8235Z" fill="#3C43FF"/>
<path d="M24.126 10.3364H17.8094V7.39239H24.126V6.07907C24.126 5.73031 23.8409 5.45068 23.4925 5.45068H15.8042V12.2592H24.126V10.3364Z" fill="#3C43FF"/>
<path fill-rule="evenodd" clip-rule="evenodd" d="M53.3117 13.2456C52.1523 13.2456 51.1639 13.6226 50.3688 14.3641C49.5705 15.1119 49.165 16.0419 49.165 17.1227C49.165 18.2036 49.5705 19.1336 50.3688 19.8813C51.1608 20.6228 52.1491 20.9999 53.3117 20.9999C54.4838 20.9999 55.4785 20.6228 56.2768 19.8845C57.0814 19.1367 57.49 18.2067 57.49 17.1259C57.49 16.0419 57.0814 15.115 56.2768 14.3641C55.4817 13.6195 54.4838 13.2456 53.3117 13.2456ZM54.677 18.4863C54.3064 18.8382 53.8597 19.0079 53.3149 19.0079C52.7795 19.0079 52.3424 18.8382 51.9781 18.4863C51.5916 18.1124 51.3762 17.5815 51.3952 17.0442C51.411 16.5509 51.5916 16.1393 51.9464 15.7811C52.317 15.4104 52.7637 15.2282 53.3149 15.2282C53.8787 15.2282 54.3349 15.4104 54.7119 15.7811C55.0698 16.1362 55.2504 16.5478 55.2694 17.0348C55.2853 17.5783 55.0698 18.1124 54.677 18.4863Z" fill="#3C43FF"/>
<path d="M70.542 7.06567H72.3635C72.7151 7.06567 73.0002 7.34845 73.0002 7.6972V16.4506H70.542V7.06567Z" fill="#3C43FF"/>
<path fill-rule="evenodd" clip-rule="evenodd" d="M68.1201 5.75244H66.7959V7.69729H62.8773V5.75244H60.907L60.9038 14.4995H68.76L68.7568 6.38396C68.7568 6.03207 68.4717 5.75244 68.1201 5.75244ZM66.7959 12.5547H62.8773V9.63585H66.1592C66.5108 9.63585 66.7959 9.91862 66.7959 10.2674V12.5547Z" fill="#3C43FF"/>
</svg>
