<?xml-stylesheet type="text/css" href="../../css/common.css"?>

<svg class="main_logo_symbol" width="18" height="18" viewBox="0 0 18 18" fill="none" xmlns="http://www.w3.org/2000/svg">
<path class="main_logo_symbol_path_01" d="M6.85305 9.47817L10.2653 7.39087C10.7364 7.10268 11.3326 7.26218 11.5968 7.74713C11.8611 8.23208 11.6934 8.85884 11.2223 9.14704L7.81007 11.2343C7.33894 11.5225 6.74278 11.363 6.47851 10.8781C6.21424 10.3931 6.38192 9.76637 6.85305 9.47817Z" fill="#3C43FF"/>
<path class="main_logo_symbol_path_02" fill-rule="evenodd" clip-rule="evenodd" d="M14.6686 14.6954C13.135 16.2267 11.2192 17 8.96894 17C6.73783 17 4.83638 16.2267 3.31235 14.6903C1.77875 13.1488 1 11.2308 1 8.99745C1 6.76407 1.77875 4.85119 3.31235 3.30461C4.83638 1.77329 6.73783 1 8.96894 1C11.2192 1 13.135 1.77838 14.6686 3.30461C16.2165 4.85119 17 6.76916 17 9.00255C17 11.2359 16.2165 13.1488 14.6686 14.6954ZM4.18662 7.90366L4.28217 7.9647C4.80292 8.32082 4.9797 9.04833 4.67393 9.6283C4.59749 9.76566 4.49718 9.88267 4.38729 9.97933L4.08152 10.1676L3.84265 10.3151C3.72799 10.3812 3.64199 10.4779 3.5751 10.5898C3.427 10.8442 3.40309 11.1749 3.55598 11.4547L4.26785 12.7672C4.37774 12.9758 4.56884 13.1081 4.77427 13.159C4.9606 13.2048 5.16125 13.1793 5.33802 13.0725L5.65333 12.8792C5.70588 12.8385 5.7632 12.8029 5.82531 12.7723C5.97341 12.696 6.14542 12.6502 6.32219 12.6502C6.90506 12.6502 7.3828 13.103 7.47357 13.6982V14.38C7.47357 14.6852 7.63123 14.9498 7.86055 15.0973C7.97999 15.1685 8.11377 15.2143 8.25709 15.2143H9.68079C9.8289 15.2143 9.96268 15.1685 10.0773 15.0973C10.3067 14.9498 10.4643 14.6852 10.4643 14.38V13.6982C10.5503 13.103 11.0328 12.6502 11.6157 12.6502C11.7925 12.6502 11.9597 12.696 12.1126 12.7723C12.1747 12.8029 12.232 12.8385 12.2846 12.8792L12.5999 13.0725C12.7766 13.1793 12.9773 13.2048 13.1636 13.159C13.3691 13.1132 13.5554 12.9758 13.6701 12.7672L14.3819 11.4547C14.5348 11.1749 14.5157 10.8442 14.3628 10.5898C14.2959 10.483 14.2099 10.3863 14.0952 10.3151L13.8564 10.1676L13.5506 9.97933C13.436 9.88776 13.3404 9.77075 13.264 9.6283C12.9534 9.05342 13.1254 8.32082 13.6462 7.9647L13.7417 7.90366L14.0905 7.68999C14.2052 7.62385 14.2911 7.52718 14.358 7.41526C14.5061 7.16089 14.53 6.83021 14.3771 6.5504L13.6653 5.23784C13.5554 5.02925 13.3643 4.89698 13.1589 4.8461C12.9725 4.80032 12.7719 4.82576 12.5951 4.9326L12.3706 5.06995L11.9979 5.29889C11.8785 5.34468 11.7495 5.37012 11.6109 5.37012C11.0281 5.37012 10.5503 4.91733 10.4595 4.3221V3.62004C10.4595 3.31479 10.3019 3.05024 10.0726 2.9027C9.95312 2.83148 9.81934 2.7857 9.67601 2.7857H8.25231C8.10421 2.7857 7.97043 2.83148 7.85577 2.9027C7.62645 3.05024 7.46879 3.31479 7.46879 3.62004V4.3221C7.38279 4.91733 6.90027 5.37012 6.31741 5.37012C6.18364 5.37012 6.04987 5.34468 5.93043 5.29889L5.55777 5.06995L5.33324 4.9326C5.15647 4.82576 4.95582 4.80032 4.76949 4.8461C4.56406 4.89189 4.37773 5.02925 4.26307 5.23784L3.55122 6.5504C3.39834 6.83021 3.41744 7.16089 3.57032 7.41526C3.63721 7.5221 3.7232 7.61876 3.83786 7.68999L4.18662 7.90366Z" fill="#3C43FF"/>
</svg>
