<svg width="24" height="24" viewBox="0 0 24 24" fill="none" xmlns="http://www.w3.org/2000/svg">
<path d="M9.86651 12.5037L13.3306 10.5037C13.8089 10.2275 14.4215 10.3908 14.6988 10.8684C14.9762 11.346 14.8133 11.957 14.335 12.2332L10.8709 14.2332C10.3926 14.5093 9.78005 14.346 9.50269 13.8684C9.22533 13.3908 9.38822 12.7798 9.86651 12.5037Z" fill="#3C43FF"/>
<path fill-rule="evenodd" clip-rule="evenodd" d="M18.3771 18.4073C16.6518 20.13 14.4966 21 11.9651 21C9.45506 21 7.31593 20.13 5.60139 18.4016C3.8761 16.6674 3 14.5097 3 11.9971C3 9.48458 3.8761 7.33259 5.60139 5.59268C7.31593 3.86995 9.45506 3 11.9651 3C14.4966 3 16.6518 3.87567 18.3771 5.59268C20.1185 7.33259 21 9.49031 21 12.0029C21 14.5154 20.1185 16.6674 18.3771 18.4073ZM6.58494 10.7666L6.69244 10.8353C7.27829 11.2359 7.47716 12.0544 7.13318 12.7068C7.04718 12.8614 6.93432 12.993 6.81071 13.1017L6.46671 13.3135L6.19798 13.4795C6.06898 13.5539 5.97224 13.6626 5.89699 13.7886C5.73038 14.0747 5.70348 14.4467 5.87547 14.7615L6.67634 16.2382C6.79996 16.4728 7.01494 16.6216 7.24606 16.6789C7.45567 16.7304 7.68141 16.7017 7.88027 16.5816L8.23499 16.3641C8.29411 16.3183 8.3586 16.2782 8.42847 16.2439C8.59509 16.158 8.7886 16.1065 8.98747 16.1065C9.64319 16.1065 10.1806 16.6159 10.2828 17.2855V18.0525C10.2828 18.3959 10.4601 18.6935 10.7181 18.8595C10.8525 18.9396 11.003 18.9911 11.1642 18.9911H12.7659C12.9325 18.9911 13.083 18.9396 13.212 18.8595C13.47 18.6935 13.6474 18.3959 13.6474 18.0525V17.2855C13.7441 16.6159 14.2869 16.1065 14.9427 16.1065C15.1415 16.1065 15.3297 16.158 15.5017 16.2439C15.5715 16.2782 15.636 16.3183 15.6951 16.3641L16.0499 16.5816C16.2487 16.7017 16.4745 16.7304 16.6841 16.6789C16.9152 16.6273 17.1248 16.4728 17.2538 16.2382L18.0547 14.7615C18.2266 14.4467 18.2051 14.0747 18.0331 13.7886C17.9579 13.6684 17.8611 13.5596 17.7321 13.4795L17.4634 13.3135L17.1195 13.1017C16.9905 12.9987 16.8829 12.8671 16.7969 12.7068C16.4476 12.0601 16.6411 11.2359 17.2269 10.8353L17.3344 10.7666L17.7268 10.5262C17.8558 10.4518 17.9525 10.3431 18.0278 10.2172C18.1944 9.931 18.2213 9.55898 18.0493 9.2442L17.2484 7.76757C17.1248 7.53291 16.9098 7.3841 16.6787 7.32686C16.4691 7.27535 16.2434 7.30398 16.0445 7.42417L15.7919 7.57869L15.3727 7.83625C15.2383 7.88776 15.0932 7.91638 14.9373 7.91638C14.2816 7.91638 13.7441 7.40699 13.642 6.73736V5.94754C13.642 5.60414 13.4646 5.30652 13.2066 5.14054C13.0723 5.06042 12.9218 5.00891 12.7605 5.00891H11.1589C10.9922 5.00891 10.8417 5.06042 10.7127 5.14054C10.4548 5.30652 10.2774 5.60414 10.2774 5.94754V6.73736C10.1806 7.40699 9.63781 7.91638 8.98209 7.91638C8.8316 7.91638 8.6811 7.88776 8.54674 7.83625L8.12749 7.57869L7.87489 7.42417C7.67603 7.30398 7.45029 7.27535 7.24068 7.32686C7.00956 7.37838 6.79995 7.53291 6.67096 7.76757L5.87013 9.2442C5.69813 9.55898 5.71962 9.931 5.89161 10.2172C5.96686 10.3374 6.0636 10.4461 6.1926 10.5262L6.58494 10.7666Z" fill="#3C43FF"/>
</svg>
