<svg width="48" height="48" viewBox="0 0 48 48" fill="none" xmlns="http://www.w3.org/2000/svg">
<path d="M19.0319 24.6L25.9601 20.6C26.9166 20.0477 28.1418 20.3743 28.6965 21.3295C29.2512 22.2847 28.9255 23.5067 27.9689 24.059L21.0407 28.059C20.0841 28.6113 18.8589 28.2847 18.3042 27.3295C17.7495 26.3743 18.0753 25.1523 19.0319 24.6Z" fill="#3C43FF"/>
<path fill-rule="evenodd" clip-rule="evenodd" d="M36.6085 37.6706C33.0621 41.2118 28.6318 43 23.4282 43C18.2687 43 13.8716 41.2118 10.3473 37.6588C6.80087 34.0941 5 29.6588 5 24.4941C5 19.3294 6.80087 14.9059 10.3473 11.3294C13.8716 7.78823 18.2687 6 23.4282 6C28.6318 6 33.0621 7.8 36.6085 11.3294C40.1881 14.9059 42 19.3412 42 24.5059C42 29.6706 40.1881 34.0941 36.6085 37.6706ZM12.369 21.9647L12.59 22.1059C13.7943 22.9294 14.2031 24.6118 13.496 25.9529C13.3192 26.2706 13.0872 26.5412 12.8331 26.7647L12.126 27.2L11.5736 27.5412C11.3085 27.6941 11.1096 27.9176 10.9549 28.1765C10.6124 28.7647 10.5572 29.5294 10.9107 30.1765L12.5569 33.2118C12.811 33.6941 13.2529 34 13.728 34.1176C14.1589 34.2235 14.6229 34.1647 15.0317 33.9177L15.7608 33.4706C15.8823 33.3765 16.0149 33.2941 16.1585 33.2235C16.501 33.047 16.8988 32.9412 17.3076 32.9412C18.6554 32.9412 19.7602 33.9882 19.9701 35.3647V36.9412C19.9701 37.6471 20.3347 38.2588 20.865 38.6C21.1412 38.7647 21.4506 38.8706 21.782 38.8706H25.0743C25.4168 38.8706 25.7262 38.7647 25.9913 38.6C26.5217 38.2588 26.8862 37.6471 26.8862 36.9412V35.3647C27.0851 33.9882 28.2009 32.9412 29.5488 32.9412C29.9576 32.9412 30.3443 33.047 30.6978 33.2235C30.8415 33.2941 30.974 33.3765 31.0956 33.4706L31.8247 33.9177C32.2335 34.1647 32.6976 34.2235 33.1284 34.1176C33.6035 34.0118 34.0344 33.6941 34.2995 33.2118L35.9457 30.1765C36.2992 29.5294 36.255 28.7647 35.9014 28.1765C35.7468 27.9294 35.5479 27.7059 35.2828 27.5412L34.7303 27.2L34.0233 26.7647C33.7582 26.5529 33.5372 26.2824 33.3604 25.9529C32.6423 24.6235 33.04 22.9294 34.2442 22.1059L34.4652 21.9647L35.2718 21.4706C35.5369 21.3177 35.7358 21.0941 35.8904 20.8353C36.2329 20.2471 36.2882 19.4824 35.9346 18.8353L34.2885 15.8C34.0344 15.3176 33.5924 15.0118 33.1174 14.8941C32.6865 14.7882 32.2225 14.8471 31.8137 15.0941L31.2944 15.4118L30.4327 15.9412C30.1565 16.0471 29.8582 16.1059 29.5378 16.1059C28.1899 16.1059 27.0851 15.0588 26.8752 13.6823V12.0588C26.8752 11.353 26.5106 10.7412 25.9803 10.4C25.7041 10.2353 25.3947 10.1294 25.0633 10.1294H21.771C21.4285 10.1294 21.1191 10.2353 20.854 10.4C20.3237 10.7412 19.9591 11.353 19.9591 12.0588V13.6823C19.7602 15.0588 18.6444 16.1059 17.2965 16.1059C16.9872 16.1059 16.6778 16.0471 16.4016 15.9412L15.5398 15.4118L15.0206 15.0941C14.6118 14.8471 14.1478 14.7882 13.7169 14.8941C13.2419 15 12.811 15.3176 12.5459 15.8L10.8997 18.8353C10.5462 19.4824 10.5903 20.2471 10.9439 20.8353C11.0985 21.0823 11.2974 21.3059 11.5626 21.4706L12.369 21.9647Z" fill="#3C43FF"/>
</svg>
