
<svg width="24" height="24" viewBox="0 0 24 24" fill="none" xmlns="http://www.w3.org/2000/svg">
<path d="M3 5.25C3 4.00736 4.00736 3 5.25 3H18.75C19.9926 3 21 4.00736 21 5.25V18.75C21 19.9926 19.9926 21 18.75 21H5.25C4.00736 21 3 19.9926 3 18.75V5.25Z" fill="#CCD3E5"/>
<path d="M10.5349 15.1924L7.7065 12.364C7.31596 11.9734 7.31601 11.3402 7.7065 10.9497C8.097 10.5593 8.73018 10.5592 9.12072 10.9497L11.242 13.0711L14.7776 9.53553C15.1681 9.14504 15.8012 9.14499 16.1918 9.53553C16.5823 9.92607 16.5823 10.5593 16.1918 10.9497L11.9491 15.1924C11.5586 15.5829 10.9255 15.5829 10.5349 15.1924Z" fill="white"/>
</svg>
