<svg width="24" height="24" viewBox="0 0 24 24" fill="none" xmlns="http://www.w3.org/2000/svg">
<g clip-path="url(#clip0)">
<path fill-rule="evenodd" clip-rule="evenodd" d="M6.58329 7.62096L6.54608 8.99796L10.7373 13.1891C11.3253 13.7772 11.4313 14.5974 11.2539 15.26C10.9077 16.5531 11.2224 17.9169 12.1593 18.8538C13.5831 20.2776 16.0315 20.2663 17.6301 18.6677C19.2287 17.0691 19.2399 14.6208 17.8161 13.197C16.8793 12.2601 15.5154 11.9454 14.2223 12.2916C13.5597 12.469 12.7395 12.363 12.1515 11.7749L7.96029 7.58374L6.58329 7.62096ZM4.6045 6.80931C4.62172 6.17198 5.13431 5.65939 5.77164 5.64217L8.25023 5.57518C8.57962 5.56627 8.89818 5.69321 9.13118 5.92621L13.5645 10.3595C13.5669 10.3609 13.573 10.3636 13.5848 10.3662C13.6108 10.3718 13.6537 10.3734 13.705 10.3596C15.6239 9.84586 17.7429 10.2953 19.2304 11.7827C21.5063 14.0587 21.3509 17.7753 19.0443 20.0819C16.7376 22.3886 13.021 22.5439 10.7451 20.268C9.25765 18.7806 8.80819 16.6616 9.32197 14.7427C9.33573 14.6913 9.33416 14.6484 9.32849 14.6225C9.32594 14.6107 9.3232 14.6046 9.32183 14.6021L4.88854 10.1689C4.65554 9.93585 4.52861 9.61729 4.53751 9.2879L4.6045 6.80931ZM9.32094 14.6008C9.32096 14.6008 9.32123 14.6011 9.32168 14.6019L9.32094 14.6008Z" fill="#1B1E25"/>
<path d="M10.2053 8.41485C10.0101 8.21959 10.0101 7.90301 10.2053 7.70774L10.9124 7.00064C11.1077 6.80537 11.4243 6.80537 11.6196 7.00064C11.8148 7.1959 11.8148 7.51248 11.6196 7.70774L10.9124 8.41485C10.7172 8.61011 10.4006 8.61011 10.2053 8.41485Z" fill="#1B1E25"/>
<path d="M15.5086 15.1324C15.8992 15.5229 15.8992 16.1561 15.5086 16.5466C15.1181 16.9371 14.485 16.9371 14.0944 16.5466C13.7039 16.1561 13.7039 15.5229 14.0944 15.1324C14.485 14.7418 15.1181 14.7418 15.5086 15.1324Z" fill="#1B1E25"/>
<path d="M11.6196 9.12196C11.4243 9.31722 11.4243 9.6338 11.6196 9.82906C11.8148 10.0243 12.1314 10.0243 12.3267 9.82906L13.0338 9.12196C13.229 8.9267 13.229 8.61011 13.0338 8.41485C12.8385 8.21959 12.5219 8.21959 12.3267 8.41485L11.6196 9.12196Z" fill="#1B1E25"/>
</g>
<defs>
<clipPath id="clip0">
<rect width="24" height="24" fill="white"/>
</clipPath>
</defs>
</svg>
