<svg width="24" height="24" viewBox="0 0 24 24" fill="none" xmlns="http://www.w3.org/2000/svg">
<path fill-rule="evenodd" clip-rule="evenodd" d="M15.6157 2.91687C16.4045 2.18876 17.6274 2.2132 18.3865 2.97226L19.9712 4.55692C20.7744 5.36014 20.7482 6.67026 19.9135 7.44074L7.67828 18.7348C7.49356 18.9053 7.25139 19 7 19H4C3.44772 19 3 18.5523 3 18V15C3 14.7209 3.11664 14.4545 3.32172 14.2652L15.6157 2.91687ZM5 15.4378V17H6.60902L16.4769 7.89114L14.8923 6.30649L5 15.4378ZM16.3631 4.94884L17.9477 6.5335L18.5569 5.97113L16.9723 4.38648L16.3631 4.94884Z" fill="black"/>
<path d="M9 19C9 18.4477 9.44772 18 10 18H19C19.5523 18 20 18.4477 20 19C20 19.5523 19.5523 20 19 20H10C9.44771 20 9 19.5523 9 19Z" fill="black"/>
</svg>
