<svg width="24" height="24" viewBox="0 0 24 24" fill="none" xmlns="http://www.w3.org/2000/svg">
<path d="M8 6C7.44772 6 7 6.44772 7 7C7 7.55228 7.44772 8 8 8C8.55228 8 9 7.55228 9 7C9 6.44772 8.55228 6 8 6Z" fill="#1B1E25"/>
<path d="M7 11C7 10.4477 7.44772 10 8 10C8.55228 10 9 10.4477 9 11C9 11.5523 8.55228 12 8 12C7.44772 12 7 11.5523 7 11Z" fill="#1B1E25"/>
<path d="M11 10C10.4477 10 10 10.4477 10 11C10 11.5523 10.4477 12 11 12C11.5523 12 12 11.5523 12 11C12 10.4477 11.5523 10 11 10Z" fill="#1B1E25"/>
<path d="M10 7C10 6.44772 10.4477 6 11 6C11.5523 6 12 6.44772 12 7C12 7.55228 11.5523 8 11 8C10.4477 8 10 7.55228 10 7Z" fill="#1B1E25"/>
<path d="M11 14C10.4477 14 10 14.4477 10 15C10 15.5523 10.4477 16 11 16C11.5523 16 12 15.5523 12 15C12 14.4477 11.5523 14 11 14Z" fill="#1B1E25"/>
<path fill-rule="evenodd" clip-rule="evenodd" d="M4 22H21V10C21 8.89543 20.1046 8 19 8H15V4C15 2.89543 14.1046 2 13 2H6C4.89543 2 4 2.89543 4 4V22ZM13 4H6V20H13V4ZM19 20H15V10H19V20Z" fill="#1B1E25"/>
</svg>
