<svg width="32" height="32" viewBox="0 0 32 32" fill="none" xmlns="http://www.w3.org/2000/svg">
<path fill-rule="evenodd" clip-rule="evenodd" d="M22 9C22 12.3137 19.3137 15 16 15C12.6863 15 10 12.3137 10 9C10 5.68629 12.6863 3 16 3C19.3137 3 22 5.68629 22 9ZM20 9C20 11.2091 18.2091 13 16 13C13.7909 13 12 11.2091 12 9C12 6.79086 13.7909 5 16 5C18.2091 5 20 6.79086 20 9Z" fill="#1B1E25"/>
<path fill-rule="evenodd" clip-rule="evenodd" d="M13 17C9.13401 17 6 20.134 6 24V26C6 27.6569 7.34315 29 9 29H23C24.6569 29 26 27.6569 26 26V24C26 20.134 22.866 17 19 17H13ZM8 24C8 21.2386 10.2386 19 13 19H19C21.7614 19 24 21.2386 24 24V26C24 26.5523 23.5523 27 23 27H9C8.44772 27 8 26.5523 8 26V24Z" fill="#1B1E25"/>
</svg>
