<svg width="40" height="40" viewBox="0 0 40 40" fill="none" xmlns="http://www.w3.org/2000/svg">
<g clip-path="url(#clip0)">
<path d="M20 40C8.95431 40 -4.82823e-07 31.0457 0 20C4.82823e-07 8.9543 8.95431 -4.82823e-07 20 0C31.0457 4.82823e-07 40 8.9543 40 20H36C36 11.1634 28.8366 4 20 4C11.1634 4 4 11.1634 4 20C4 28.8366 11.1634 36 20 36C22.8894 36 25.5999 35.2341 27.9396 33.8943L29.9245 37.3678C26.9999 39.0426 23.6117 40 20 40Z" fill="#1B1E25"/>
</g>
<defs>
<clipPath id="clip0">
<rect width="40" height="40" fill="white"/>
</clipPath>
</defs>
</svg>
