<svg width="32" height="32" viewBox="0 0 32 32" fill="none" xmlns="http://www.w3.org/2000/svg">
<circle cx="16" cy="16" r="15.5" fill="white" stroke="#8A96B9"/>
<path fill-rule="evenodd" clip-rule="evenodd" d="M20.5 10.5C20.5 12.9853 18.4853 15 16 15C13.5147 15 11.5 12.9853 11.5 10.5C11.5 8.01472 13.5147 6 16 6C18.4853 6 20.5 8.01472 20.5 10.5ZM18.5 10.5C18.5 11.8807 17.3807 13 16 13C14.6193 13 13.5 11.8807 13.5 10.5C13.5 9.11929 14.6193 8 16 8C17.3807 8 18.5 9.11929 18.5 10.5Z" fill="#7581A6"/>
<path fill-rule="evenodd" clip-rule="evenodd" d="M13 16C10.2386 16 8 18.4873 8 21.5556V22.6667C8 24.5076 9.34315 26 11 26H21C22.6569 26 24 24.5076 24 22.6667V21.5556C24 18.4873 21.7614 16 19 16H13ZM10 21.5556C10 19.7146 11.3431 18.2222 13 18.2222H19C20.6569 18.2222 22 19.7146 22 21.5556V22.6667C22 23.2803 21.5523 23.7778 21 23.7778H11C10.4477 23.7778 10 23.2803 10 22.6667V21.5556Z" fill="#7581A6"/>
</svg>
