<svg width="24" height="24" viewBox="0 0 24 24" fill="none" xmlns="http://www.w3.org/2000/svg">
<path fill-rule="evenodd" clip-rule="evenodd" d="M3.865 6C3.92736 6 3.98559 6.03116 4.02018 6.08305L6.14037 9.26333L6.80232 15.2209C6.91486 16.2337 7.77099 17 8.79009 17H19.2099C20.229 17 21.0851 16.2337 21.1977 15.2209L21.7532 10.2209C21.8849 9.03613 20.9575 8 19.7655 8H7.70185L5.2681 4.34938C5.12259 4.13111 4.87761 4 4.61529 4H3C2.44771 4 2 4.44772 2 5C2 5.55228 2.44772 6 3 6H3.865ZM8.79009 15L8.23453 10H19.7655L19.2099 15H8.79009Z" fill="#1B1E25"/>
<path d="M10.5 21C11.3284 21 12 20.3284 12 19.5C12 18.6716 11.3284 18 10.5 18C9.67157 18 9 18.6716 9 19.5C9 20.3284 9.67157 21 10.5 21Z" fill="#1B1E25"/>
<path d="M19 19.5C19 20.3284 18.3284 21 17.5 21C16.6716 21 16 20.3284 16 19.5C16 18.6716 16.6716 18 17.5 18C18.3284 18 19 18.6716 19 19.5Z" fill="#1B1E25"/>
</svg>
