<svg width="24" height="24" viewBox="0 0 24 24" fill="none" xmlns="http://www.w3.org/2000/svg">
<path fill-rule="evenodd" clip-rule="evenodd" d="M11.7071 8.05016L10.2929 6.63595C9.90239 6.24543 9.90239 5.61226 10.2929 5.22174L11.7071 3.80752C12.4882 3.02648 13.7545 3.02648 14.5356 3.80752L20.1924 9.46438C20.9735 10.2454 20.9735 11.5118 20.1924 12.2928L18.7782 13.707C18.3877 14.0975 17.7545 14.0975 17.364 13.707L15.9498 12.2928L14.8034 13.4391L15.1549 13.7125C15.3729 13.8821 15.4122 14.1962 15.2426 14.4142C15.0731 14.6321 14.759 14.6714 14.541 14.5019L14.0908 14.1517L12.6876 15.5549L13.0391 15.8283C13.2571 15.9978 13.2964 16.312 13.1268 16.53C12.9573 16.7479 12.6432 16.7872 12.4252 16.6177L11.975 16.2675L10.5664 17.6762L10.9672 17.988C11.1852 18.1575 11.2244 18.4716 11.0549 18.6896C10.8854 18.9076 10.5712 18.9468 10.3532 18.7773L9.85375 18.3888L8.17159 20.071C7.39054 20.852 6.12421 20.852 5.34316 20.071L3.92895 18.6568C3.1479 17.8757 3.1479 16.6094 3.92895 15.8283L5.08078 14.6765L4.77863 14.4415C4.56066 14.272 4.52139 13.9578 4.69093 13.7399C4.86046 13.5219 5.1746 13.4826 5.39257 13.6522L5.79339 13.9639L7.20206 12.5552L6.85058 12.2819C6.63261 12.1123 6.59334 11.7982 6.76287 11.5802C6.93241 11.3622 7.24655 11.323 7.46452 11.4925L7.91467 11.8426L9.31785 10.4394L8.96637 10.1661C8.7484 9.99653 8.70913 9.68239 8.87867 9.46442C9.0482 9.24644 9.36234 9.20718 9.58032 9.37671L10.0305 9.72683L11.7071 8.05016ZM13.1213 5.22174L18.7782 10.8786L18.0711 11.5857L12.4142 5.92884L13.1213 5.22174ZM13.1213 9.46438L11.6215 10.9643L13.2124 12.2017L14.5356 10.8786L13.1213 9.46438ZM10.384 15.0301L8.97537 16.4388L7.38438 15.2013L8.79305 13.7927L10.384 15.0301ZM5.34316 17.2426L6.67177 15.9139L8.26276 17.1514L6.75738 18.6568L5.34316 17.2426ZM11.0966 14.3175L9.50566 13.0801L10.9088 11.6769L12.4998 12.9143L11.0966 14.3175Z" fill="black"/>
</svg>
