<svg width="18" height="18" viewBox="0 0 18 18" fill="none" xmlns="http://www.w3.org/2000/svg">
<path d="M6 10C6.55228 10 7 9.55228 7 9C7 8.44772 6.55228 8 6 8C5.44772 8 5 8.44772 5 9C5 9.55228 5.44772 10 6 10Z" fill="#1B1E25"/>
<path d="M10 9C10 9.55228 9.55229 10 9 10C8.44772 10 8 9.55228 8 9C8 8.44772 8.44772 8 9 8C9.55229 8 10 8.44772 10 9Z" fill="#1B1E25"/>
<path d="M12 10C12.5523 10 13 9.55228 13 9C13 8.44772 12.5523 8 12 8C11.4477 8 11 8.44772 11 9C11 9.55228 11.4477 10 12 10Z" fill="#1B1E25"/>
<path fill-rule="evenodd" clip-rule="evenodd" d="M9 2C4.7319 2 1 4.99494 1 9C1 13.0051 4.7319 16 9 16C10.3313 16 11.593 15.7155 12.7052 15.2071L14.1406 15.5659C15.6053 15.9321 16.9321 14.6053 16.5659 13.1406L16.2652 11.9376C16.7345 11.0484 17 10.0527 17 9C17 4.99494 13.2681 2 9 2ZM3 9C3 6.37764 5.53612 4 9 4C12.4639 4 15 6.37764 15 9C15 9.81136 14.7676 10.5814 14.3458 11.268L14.1258 11.6262L14.6256 13.6256L12.956 13.2082L12.9528 13.2073L12.9514 13.2069L12.5378 13.0537L12.1457 13.2559C11.2362 13.725 10.1605 14 9 14C5.53612 14 3 11.6224 3 9Z" fill="#1B1E25"/>
</svg>
