<svg width="24" height="24" viewBox="0 0 24 24" fill="none" xmlns="http://www.w3.org/2000/svg">
<path fill-rule="evenodd" clip-rule="evenodd" d="M16.5 6.5C16.5 8.98528 14.4853 11 12 11C9.51472 11 7.5 8.98528 7.5 6.5C7.5 4.01472 9.51472 2 12 2C14.4853 2 16.5 4.01472 16.5 6.5ZM14.5 6.5C14.5 7.88071 13.3807 9 12 9C10.6193 9 9.5 7.88071 9.5 6.5C9.5 5.11929 10.6193 4 12 4C13.3807 4 14.5 5.11929 14.5 6.5Z" fill="#1B1E25"/>
<path fill-rule="evenodd" clip-rule="evenodd" d="M9 12C6.23858 12 4 14.4873 4 17.5556V18.6667C4 20.5076 5.34315 22 7 22H17C18.6569 22 20 20.5076 20 18.6667V17.5556C20 14.4873 17.7614 12 15 12H9ZM6 17.5556C6 15.7146 7.34315 14.2222 9 14.2222H15C16.6569 14.2222 18 15.7146 18 17.5556V18.6667C18 19.2803 17.5523 19.7778 17 19.7778H7C6.44772 19.7778 6 19.2803 6 18.6667V17.5556Z" fill="#1B1E25"/>
</svg>
