<svg width="24" height="24" viewBox="0 0 24 24" fill="none" xmlns="http://www.w3.org/2000/svg">
<path fill-rule="evenodd" clip-rule="evenodd" d="M12 17C14.2091 17 16 15.2091 16 13C16 10.7909 14.2091 9 12 9C9.79086 9 8 10.7909 8 13C8 15.2091 9.79086 17 12 17ZM12 15C13.1046 15 14 14.1046 14 13C14 11.8954 13.1046 11 12 11C10.8954 11 10 11.8954 10 13C10 14.1046 10.8954 15 12 15Z" fill="#1B1E25"/>
<path d="M7 11C7.55228 11 8 10.5523 8 10C8 9.44771 7.55228 9 7 9C6.44772 9 6 9.44771 6 10C6 10.5523 6.44772 11 7 11Z" fill="#1B1E25"/>
<path fill-rule="evenodd" clip-rule="evenodd" d="M6.3673 5.56085C6.87528 4.63289 7.86301 4 9 4H15C16.137 4 17.1247 4.63289 17.6327 5.56085C17.7281 5.73504 17.8316 5.86635 17.9211 5.94311C17.9676 5.98294 17.9953 5.99616 18.0061 6H19C20.6569 6 22 7.34315 22 9V17C22 18.6569 20.6569 20 19 20H5C3.34315 20 2 18.6569 2 17V9C2 7.34315 3.34315 6 5 6H5.99386C6.00472 5.99616 6.03245 5.98294 6.07889 5.94311C6.16839 5.86635 6.27195 5.73504 6.3673 5.56085ZM9 6C8.6228 6 8.29285 6.20846 8.12164 6.52121C7.9518 6.83147 7.70927 7.17964 7.3809 7.46126C7.04745 7.74723 6.58037 8 6 8H5C4.44772 8 4 8.44772 4 9V17C4 17.5523 4.44772 18 5 18H19C19.5523 18 20 17.5523 20 17V9C20 8.44771 19.5523 8 19 8H18C17.4196 8 16.9526 7.74723 16.6191 7.46126C16.2907 7.17964 16.0482 6.83147 15.8784 6.52121C15.7072 6.20846 15.3772 6 15 6H9ZM5.99263 6.00042L5.98965 6.00095C5.99029 6.00085 5.99093 6.00097 5.99263 6.00042Z" fill="#1B1E25"/>
</svg>
