<svg width="24" height="24" viewBox="0 0 24 24" fill="none" xmlns="http://www.w3.org/2000/svg">
<path fill-rule="evenodd" clip-rule="evenodd" d="M17 11C17 14.3137 14.3137 17 11 17C7.68629 17 5 14.3137 5 11C5 7.68629 7.68629 5 11 5C14.3137 5 17 7.68629 17 11ZM16.0135 17.2345C14.6418 18.339 12.8981 19 11 19C6.58172 19 3 15.4183 3 11C3 6.58172 6.58172 3 11 3C15.4183 3 19 6.58172 19 11C19 12.8696 18.3587 14.5894 17.284 15.9514L20.3397 19.1333C20.6984 19.5068 20.67 20.1048 20.2775 20.4426C19.9141 20.7552 19.3698 20.7293 19.0378 20.3836L16.0135 17.2345Z" fill="#1B1E25"/>
</svg>
