<svg width="24" height="24" viewBox="0 0 24 24" fill="none" xmlns="http://www.w3.org/2000/svg">
<circle cx="12" cy="12" r="11.5" fill="white" stroke="#8A96B9"/>
<path fill-rule="evenodd" clip-rule="evenodd" d="M16 8C16 10.2091 14.2091 12 12 12C9.79086 12 8 10.2091 8 8C8 5.79086 9.79086 4 12 4C14.2091 4 16 5.79086 16 8ZM14 8C14 9.10457 13.1046 10 12 10C10.8954 10 10 9.10457 10 8C10 6.89543 10.8954 6 12 6C13.1046 6 14 6.89543 14 8Z" fill="#8A96B9"/>
<path fill-rule="evenodd" clip-rule="evenodd" d="M9.33333 13C6.9401 13 5 14.9401 5 17.3333C5 18.8061 6.19391 20 7.66667 20H16.3333C17.8061 20 19 18.8061 19 17.3333C19 14.9401 17.0599 13 14.6667 13H9.33333ZM7 17.3333C7 16.0447 8.04467 15 9.33333 15H14.6667C15.9553 15 17 16.0447 17 17.3333C17 17.7015 16.7015 18 16.3333 18H7.66667C7.29848 18 7 17.7015 7 17.3333Z" fill="#8A96B9"/>
</svg>
