<svg width="32" height="32" viewBox="0 0 32 32" fill="none" xmlns="http://www.w3.org/2000/svg">
<path fill-rule="evenodd" clip-rule="evenodd" d="M14.8185 8.56474L14.672 8.43675C12.3819 6.43573 8.89057 6.52517 6.70586 8.70304C4.52412 10.878 4.43538 14.348 6.43879 16.6266L6.56727 16.7727L16.0001 26.176L25.4329 16.7727L25.5614 16.6266C27.5648 14.348 27.476 10.878 25.2943 8.70304C23.1096 6.52517 19.6183 6.43573 17.3281 8.43675L17.1815 8.56488L16.0778 9.66505L16.0001 9.59712L15.9223 9.66511L14.8185 8.56474ZM16.0001 6.91858L16.0122 6.93065C19.0884 4.24281 23.772 4.36146 26.7063 7.28661C29.6406 10.2117 29.7596 14.8806 27.0634 17.9472C27.0634 17.9472 27.0634 17.9472 27.0634 17.9472L27.0755 17.9593L17.4121 27.5924C16.6315 28.3705 15.3686 28.3705 14.5881 27.5924L4.92469 17.9593L4.93619 17.9478C2.23991 14.8812 2.35954 10.2117 5.29387 7.28661C8.2282 4.36146 12.9117 4.24281 15.988 6.93066L16.0001 6.91858Z" fill="#1B1E25"/>
</svg>
