<svg width="24" height="24" viewBox="0 0 24 24" fill="none" xmlns="http://www.w3.org/2000/svg">
<path fill-rule="evenodd" clip-rule="evenodd" d="M12 9C12 10.6569 10.6569 12 9 12C7.34315 12 6 10.6569 6 9C6 7.34315 7.34315 6 9 6C10.6569 6 12 7.34315 12 9ZM10 9C10 9.55228 9.55228 10 9 10C8.44772 10 8 9.55228 8 9C8 8.44772 8.44772 8 9 8C9.55228 8 10 8.44772 10 9Z" fill="#1B1E25"/>
<path fill-rule="evenodd" clip-rule="evenodd" d="M3 6C3 4.34315 4.34315 3 6 3H18C19.6569 3 21 4.34315 21 6V18C21 19.6569 19.6569 21 18 21H6C4.34315 21 3 19.6569 3 18V6ZM6 5C5.44772 5 5 5.44772 5 6V15.2544L6.64603 13.8435C7.4395 13.1634 8.62284 13.2088 9.36182 13.9478L10.9999 15.5859L14.5857 12.0001C15.3667 11.219 16.6331 11.219 17.4141 12.0001L19 13.586V6C19 5.44772 18.5523 5 18 5H6ZM5 18V17.5835L5.1507 17.7593L7.94761 15.362L10.9999 18.4143L15.9999 13.4143L19 16.4144V18C19 18.5523 18.5523 19 18 19H6C5.44772 19 5 18.5523 5 18Z" fill="#1B1E25"/>
</svg>
