<svg width="18" height="18" viewBox="0 0 18 18" fill="none" xmlns="http://www.w3.org/2000/svg">
<path fill-rule="evenodd" clip-rule="evenodd" d="M9 17C13.4183 17 17 13.4183 17 9C17 4.58172 13.4183 1 9 1C4.58172 1 1 4.58172 1 9C1 13.4183 4.58172 17 9 17ZM11.3641 5.70691C11.7546 5.31639 12.3878 5.31639 12.7783 5.70691C13.1689 6.09744 13.1689 6.7306 12.7783 7.12113L10.6569 9.24252L12.7783 11.3639C13.1689 11.7544 13.1689 12.3876 12.7783 12.7781C12.3878 13.1687 11.7546 13.1687 11.3641 12.7781L9.24272 10.6567L7.12147 12.778C6.73095 13.1685 6.09778 13.1685 5.70726 12.778C5.31673 12.3875 5.31673 11.7543 5.70726 11.3638L7.8285 9.24252L5.70726 7.12128C5.31673 6.73076 5.31673 6.09759 5.70726 5.70707C6.09778 5.31654 6.73095 5.31654 7.12147 5.70707L9.24272 7.82831L11.3641 5.70691Z" fill="#1B1E25"/>
</svg>
