<?xml-stylesheet type="text/css" href="../../css/common.css"?>

<svg class="svg_bullet_mandatory" width="18" height="18" viewBox="0 0 18 18" fill="none" xmlns="http://www.w3.org/2000/svg">
<path class="svg_bullet_mandatory_path" d="M8.00011 4C8.00011 3.44772 8.44782 3 9.00011 3C9.55239 3 10.0001 3.44772 10.0001 4V7.26784L12.8304 5.63379C13.3087 5.35765 13.9203 5.52152 14.1964 5.99981C14.4725 6.47811 14.3087 7.0897 13.8304 7.36584L10.9998 9.00008L13.8301 10.6342C14.3084 10.9103 14.4723 11.5219 14.1961 12.0002C13.92 12.4785 13.3084 12.6424 12.8301 12.3662L10.0001 10.7323V14C10.0001 14.5523 9.55239 15 9.00011 15C8.44782 15 8.00011 14.5523 8.00011 14V10.7319L5.17012 12.3658C4.69182 12.642 4.08023 12.4781 3.80409 11.9998C3.52795 11.5215 3.69183 10.9099 4.17012 10.6338L6.99979 9.00008L4.16984 7.36621C3.69155 7.09007 3.52768 6.47848 3.80382 6.00019C4.07996 5.52189 4.69155 5.35802 5.16984 5.63416L8.00011 7.26821V4Z" fill="#1B1E25"/>
</svg>
