<svg width="18" height="18" viewBox="0 0 18 18" fill="none" xmlns="http://www.w3.org/2000/svg">
<path fill-rule="evenodd" clip-rule="evenodd" d="M9 6C7.34315 6 6 7.34315 6 9C6 10.6569 7.34315 12 9 12C10.6569 12 12 10.6569 12 9C12 7.34315 10.6569 6 9 6ZM8 9C8 8.44772 8.44772 8 9 8C9.55228 8 10 8.44772 10 9C10 9.55228 9.55228 10 9 10C8.44772 10 8 9.55228 8 9Z" fill="#1B1E25"/>
<path fill-rule="evenodd" clip-rule="evenodd" d="M17 9C17 11 13.4183 15 9 15C4.58172 15 1 11 1 9C1 7 4.58172 3 9 3C13.4183 3 17 7 17 9ZM14.9981 8.99499L14.9992 9L14.9981 9.00501C14.989 9.04908 14.9379 9.29553 14.6691 9.73122C14.3827 10.1956 13.9359 10.7301 13.3498 11.2362C12.1619 12.2619 10.6083 13 9 13C7.39174 13 5.83812 12.2619 4.65021 11.2362C4.0641 10.7301 3.61733 10.1956 3.33087 9.73122C3.0621 9.29553 3.01102 9.04908 3.00189 9.00501L3.00083 9L3.00189 8.99499C3.01102 8.95092 3.0621 8.70447 3.33087 8.26878C3.61733 7.8044 4.0641 7.26987 4.65021 6.7638C5.83812 5.73812 7.39174 5 9 5C10.6083 5 12.1619 5.73812 13.3498 6.7638C13.9359 7.26987 14.3827 7.8044 14.6691 8.26878C14.9379 8.70447 14.989 8.95092 14.9981 8.99499Z" fill="#1B1E25"/>
</svg>
