<svg width="24" height="24" viewBox="0 0 24 24" fill="none" xmlns="http://www.w3.org/2000/svg">
<path fill-rule="evenodd" clip-rule="evenodd" d="M11.1258 3.57344C11.5068 2.88763 12.4931 2.88763 12.8741 3.57344L21.1746 18.5143C21.5449 19.1808 21.0629 20 20.3004 20H3.69944C2.93695 20 2.45498 19.1808 2.82528 18.5143L11.1258 3.57344ZM10.9999 7.99996C10.9999 7.44767 11.4476 6.99996 11.9999 6.99996C12.5522 6.99996 12.9999 7.44767 12.9999 7.99996V14C12.9999 14.5522 12.5522 15 11.9999 15C11.4476 15 10.9999 14.5522 10.9999 14V7.99996ZM11.9999 16C11.4476 16 10.9999 16.4477 10.9999 17C10.9999 17.5522 11.4476 18 11.9999 18C12.5522 18 12.9999 17.5522 12.9999 17C12.9999 16.4477 12.5522 16 11.9999 16Z" fill="#1B1E25"/>
</svg>
