<svg width="24" height="24" viewBox="0 0 24 24" fill="none" xmlns="http://www.w3.org/2000/svg">
<path d="M8 7C8 5.34315 9.34315 4 11 4H17C18.6569 4 20 5.34315 20 7V17C20 18.6569 18.6569 20 17 20H11C9.34315 20 8 18.6569 8 17V16C8 15.4477 8.44771 15 9 15C9.55229 15 10 15.4477 10 16V17C10 17.5523 10.4477 18 11 18H17C17.5523 18 18 17.5523 18 17V7C18 6.44772 17.5523 6 17 6H11C10.4477 6 10 6.44772 10 7V8C10 8.55229 9.55229 9 9 9C8.44771 9 8 8.55229 8 8V7Z" fill="#1B1E25"/>
<path d="M6.53587 9.7072C6.88813 10.0595 6.92265 10.6091 6.63941 11.0001H11.0002C11.5524 11.0001 12.0002 11.4478 12.0002 12.0001C12.0002 12.5524 11.5524 13.0001 11.0002 13.0001H6.79904C6.88106 13.3294 6.79334 13.6924 6.53587 13.9498C6.14535 14.3404 5.51218 14.3404 5.12166 13.9498L3.70744 12.5356C3.31692 12.1451 3.31692 11.5119 3.70744 11.1214L5.12166 9.7072C5.51218 9.31668 6.14535 9.31668 6.53587 9.7072Z" fill="#1B1E25"/>
</svg>
