<svg width="48" height="48" viewBox="0 0 48 48" fill="none" xmlns="http://www.w3.org/2000/svg">
<circle cx="24" cy="24" r="23.5" fill="white" stroke="#8A96B9"/>
<path fill-rule="evenodd" clip-rule="evenodd" d="M30 17C30 20.3137 27.3137 23 24 23C20.6863 23 18 20.3137 18 17C18 13.6863 20.6863 11 24 11C27.3137 11 30 13.6863 30 17ZM28 17C28 19.2091 26.2091 21 24 21C21.7909 21 20 19.2091 20 17C20 14.7909 21.7909 13 24 13C26.2091 13 28 14.7909 28 17Z" fill="#7581A6"/>
<path fill-rule="evenodd" clip-rule="evenodd" d="M21 25C17.134 25 14 28.134 14 32V34C14 35.6569 15.3431 37 17 37H31C32.6569 37 34 35.6569 34 34V32C34 28.134 30.866 25 27 25H21ZM16 32C16 29.2386 18.2386 27 21 27H27C29.7614 27 32 29.2386 32 32V34C32 34.5523 31.5523 35 31 35H17C16.4477 35 16 34.5523 16 34V32Z" fill="#7581A6"/>
</svg>
