<svg width="18" height="18" viewBox="0 0 18 18" fill="none" xmlns="http://www.w3.org/2000/svg">
<path fill-rule="evenodd" clip-rule="evenodd" d="M9 17C13.4183 17 17 13.4183 17 9C17 4.58172 13.4183 1 9 1C4.58172 1 1 4.58172 1 9C1 13.4183 4.58172 17 9 17ZM8.00022 4.99992C8.00022 4.44763 8.44794 3.99992 9.00022 3.99992C9.55251 3.99992 10.0002 4.44763 10.0002 4.99992V7.99992L13.0002 7.99992C13.5525 7.99992 14.0002 8.44763 14.0002 8.99992C14.0002 9.5522 13.5525 9.99992 13.0002 9.99992H10.0002V12.9999C10.0002 13.5522 9.55251 13.9999 9.00022 13.9999C8.44794 13.9999 8.00022 13.5522 8.00022 12.9999V9.99992H5.00022C4.44794 9.99992 4.00022 9.5522 4.00022 8.99992C4.00022 8.44763 4.44794 7.99992 5.00022 7.99992H8.00022V4.99992Z" fill="#1B1E25"/>
</svg>
