<svg width="18" height="18" viewBox="0 0 18 18" fill="none" xmlns="http://www.w3.org/2000/svg">
<g clip-path="url(#clip0_4388:3060)">
<path fill-rule="evenodd" clip-rule="evenodd" d="M9 7.14203L7.58579 5.72782C6.61522 4.75726 5.04163 4.75726 4.07107 5.72782C3.10051 6.69838 3.1005 8.27197 4.07107 9.24254L9 14.1715L13.9289 9.24254C14.8995 8.27197 14.8995 6.69838 13.9289 5.72782C12.9584 4.75726 11.3848 4.75726 10.4142 5.72782L9 7.14203ZM15.3431 4.3136C13.5915 2.56199 10.7516 2.56199 9 4.3136C7.24839 2.56199 4.40847 2.56199 2.65685 4.3136C0.905243 6.06522 0.905243 8.90514 2.65685 10.6568L7.58579 15.5857C8.36683 16.3667 9.63317 16.3667 10.4142 15.5857L15.3431 10.6568C17.0948 8.90514 17.0948 6.06522 15.3431 4.3136Z" fill="#1B1E25"/>
</g>
<defs>
<clipPath id="clip0_4388:3060">
<rect width="18" height="18" fill="white"/>
</clipPath>
</defs>
</svg>
