<svg width="24" height="24" viewBox="0 0 24 24" fill="none" xmlns="http://www.w3.org/2000/svg">
<path d="M12.0001 13.4143L18.5859 20.0001C18.9764 20.3906 19.6096 20.3906 20.0001 20.0001C20.3906 19.6096 20.3906 18.9764 20.0001 18.5859L13.4143 12.0001L20.0001 5.41429C20.3906 5.02377 20.3906 4.3906 20.0001 4.00008C19.6096 3.60955 18.9764 3.60955 18.5859 4.00007L12.0001 10.5859L5.41429 4.00008C5.02376 3.60955 4.3906 3.60955 4.00008 4.00008C3.60955 4.3906 3.60955 5.02376 4.00007 5.41429L10.5859 12.0001L4.00008 18.5859C3.60955 18.9764 3.60955 19.6096 4.00008 20.0001C4.3906 20.3906 5.02376 20.3906 5.41429 20.0001L12.0001 13.4143Z" fill="black"/>
</svg>
