<svg width="24" height="24" viewBox="0 0 24 24" fill="none" xmlns="http://www.w3.org/2000/svg">
<path d="M3 5.25C3 4.00736 4.00736 3 5.25 3H18.75C19.9926 3 21 4.00736 21 5.25V18.75C21 19.9926 19.9926 21 18.75 21H5.25C4.00736 21 3 19.9926 3 18.75V5.25Z" fill="#3B43FF"/>
<path d="M10.5354 15.1924L7.70699 12.364C7.31645 11.9734 7.31649 11.3402 7.70699 10.9497C8.09749 10.5593 8.73066 10.5592 9.1212 10.9497L11.2425 13.0711L14.7781 9.53553C15.1686 9.14504 15.8017 9.14499 16.1923 9.53553C16.5828 9.92607 16.5828 10.5593 16.1923 10.9497L11.9496 15.1924C11.5591 15.5829 10.926 15.5829 10.5354 15.1924Z" fill="white"/>
</svg>
