<?xml-stylesheet type="text/css" href="../../css/common.css"?>

<svg class="svg_nav_search" width="18" height="18" viewBox="0 0 18 18" fill="none" xmlns="http://www.w3.org/2000/svg">
<path class="svg_nav_search_path" fill-rule="evenodd" clip-rule="evenodd" d="M12.1922 13.6064C11.0236 14.4816 9.57234 15 8 15C4.13401 15 1 11.866 1 8C1 4.13401 4.13401 1 8 1C11.866 1 15 4.13401 15 8C15 9.57234 14.4816 11.0236 13.6064 12.1922L17.0001 15.5859C17.3906 15.9764 17.3906 16.6096 17.0001 17.0001C16.6096 17.3906 15.9764 17.3906 15.5859 17.0001L12.1922 13.6064ZM13 8C13 10.7614 10.7614 13 8 13C5.23858 13 3 10.7614 3 8C3 5.23858 5.23858 3 8 3C10.7614 3 13 5.23858 13 8Z" fill="#1B1E25"/>
</svg>
