<svg width="56" height="56" viewBox="0 0 56 56" fill="none" xmlns="http://www.w3.org/2000/svg">
<g clip-path="url(#clip0)">
<path fill-rule="evenodd" clip-rule="evenodd" d="M28 56C12.536 56 -1.89987e-06 43.464 -1.22392e-06 28C-5.47967e-07 12.536 12.536 4.84315e-07 28 1.16027e-06C43.464 1.83622e-06 56 12.536 56 28L51.9999 28C51.9999 14.7452 41.2547 4 27.9999 4C14.7451 4 3.99991 14.7452 3.99991 28C3.99991 41.2548 14.7451 52 27.9999 52C32.334 52 36.3998 50.8511 39.9093 48.8414L41.8943 52.315C37.7998 54.6597 33.0564 56 28 56Z" fill="#1B1E25"/>
</g>
<defs>
<clipPath id="clip0">
<rect width="56" height="56" fill="white"/>
</clipPath>
</defs>
</svg>
