<svg width="18" height="18" viewBox="0 0 18 18" fill="none" xmlns="http://www.w3.org/2000/svg">
<g clip-path="url(#clip0)">
<path d="M4.75759 3.34315C4.36707 2.95262 3.7339 2.95262 3.34338 3.34315C2.95285 3.73367 2.95285 4.36684 3.34338 4.75736L7.58602 9L3.34338 13.2426C2.95285 13.6332 2.95285 14.2663 3.34338 14.6569C3.7339 15.0474 4.36707 15.0474 4.75759 14.6569L9.00023 10.4142L13.2429 14.6569C13.6334 15.0474 14.2666 15.0474 14.6571 14.6569C15.0476 14.2663 15.0476 13.6332 14.6571 13.2426L10.4144 9L14.6571 4.75736C15.0476 4.36684 15.0476 3.73367 14.6571 3.34315C14.2666 2.95262 13.6334 2.95262 13.2429 3.34315L9.00023 7.58579L4.75759 3.34315Z" fill="#1B1E25"/>
</g>
<defs>
<clipPath id="clip0">
<rect width="18" height="18" fill="white"/>
</clipPath>
</defs>
</svg>
